{"title":"The X Factor Au - S08E01","uid":15967555,"size":478004758,"categoryP":"video","categoryS":"tv_shows","magnet":"?xt=urn:btih:1b82ccf7b61fcddd2d575a0b1f22fe3dc6c1467e&amp;dn=The+X+Factor+Au+-+S08E01&amp;tr=udp%3A%2F%2Ftracker.leechers-paradise.org%3A6969&amp;tr=udp%3A%2F%2Fzer0day.ch%3A1337&amp;tr=udp%3A%2F%2Fopen.demonii.com%3A1337&amp;tr=udp%3A%2F%2Ftracker.coppersurfer.tk%3A6969&amp;tr=udp%3A%2F%2Fexodus.desync.com%3A6969","seeders":12,"leechers":2,"uploader":"Bullrout","files":1,"time":1475739827,"description":"The X Factor Au - S08E01\r\n\r\nThe X Factor Next Generation starts tonight with two brand new Superstar judges, Iggy Azalea and Adam Lambert joining X Factor heavy weight Guy Sebastian to unearth Australia's next singing sensation.\r\n\r\nComplete name                            : The X Factor Au - S08E01.mp4\r\nFormat                                   : MPEG-4\r\nFormat profile                           : Base Media / Version 2\r\nCodec ID                                 : mp42 (mp42/isom/avc1)\r\nFile size                                : 456 MiB\r\nDuration                                 : 57 min 27 s\r\nOverall bit rate mode                    : Variable\r\nOverall bit rate                         : 1 109 kb/s\r\n\r\nVideo\r\nID                                       : 2\r\nFormat                                   : AVC\r\nFormat/Info                              : Advanced Video Codec\r\nFormat profile                           :   \r\nFormat settings, CABAC                   : Yes\r\nFormat settings, ReFrames                : 3 frames\r\nCodec ID                                 : avc1\r\nCodec ID/Info                            : Advanced Video Coding\r\nDuration                                 : 57 min 27 s\r\nBit rate mode                            : Variable\r\nBit rate                                 : 978 kb/s\r\nMaximum bit rate                         : 1 000 kb/s\r\nWidth                                    : 720 pixels\r\nHeight                                   : 404 pixels\r\nDisplay aspect ratio                     : 16:9\r\nOriginal display aspect ratio            : 16:9\r\nFrame rate mode                          : Constant\r\nFrame rate                               : 25.000 FPS\r\nStandard                                 : PAL\r\nColor space                              : YUV\r\nChroma subsampling                       : 4:2:0\r\nBit depth                                : 8 bits\r\nScan type                                : Progressive\r\nBits/(Pixel*Frame)                       : 0.134\r\nStream size                              : 402 MiB (88%)\r\nWriting library                          : x264 core 112\r\nColor range                              : Limited\r\nColor primaries                          : BT.601 PAL\r\nTransfer characteristics                 : BT.470 System B, BT.470 System G\r\nMatrix coefficients                      : BT.601\r\n\r\nAudio\r\nID                                       : 1\r\nFormat                                   : AAC\r\nFormat/Info                              : Advanced Audio Codec\r\nFormat profile                           : LC\r\nCodec ID                                 : 40\r\nDuration                                 : 57 min 27 s\r\nBit rate mode                            : Variable\r\nBit rate                                 : 128 kb/s\r\nMaximum bit rate                         : 576 kb/s\r\nChannel(s)                               : 2 channels\r\nChannel positions                        : Front: L R\r\nSampling rate                            : 48.0 kHz\r\nFrame rate                               : 46.875 FPS (1024 spf)\r\nCompression mode                         : Lossy\r\nStream size                              : 52.6 MiB (12%)","torrent":{"xt":"urn:btih:1b82ccf7b61fcddd2d575a0b1f22fe3dc6c1467e","amp;dn":"The+X+Factor+Au+-+S08E01","amp;tr":["udp%3A%2F%2Ftracker.leechers-paradise.org%3A6969","udp%3A%2F%2Fzer0day.ch%3A1337","udp%3A%2F%2Fopen.demonii.com%3A1337","udp%3A%2F%2Ftracker.coppersurfer.tk%3A6969","udp%3A%2F%2Fexodus.desync.com%3A6969"],"infoHash":"1b82ccf7b61fcddd2d575a0b1f22fe3dc6c1467e","infoHashBuffer":{"type":"Buffer","data":[27,130,204,247,182,31,205,221,45,87,90,11,31,34,254,61,198,193,70,126]},"announce":[],"urlList":[]}}